<svg xmlns="http://www.w3.org/2000/svg" viewBox="0 0 24 24" width="512" height="512" fill="none">
  <defs>
    <linearGradient id="markmapGrad" x1="0%" y1="0%" x2="100%" y2="100%">
      <stop offset="0%" stop-color="#4F46E5" />
      <stop offset="100%" stop-color="#06B6D4" />
    </linearGradient>
  </defs>

  <rect width="24" height="24" rx="5" fill="#F8FAFC"/>

  <path d="M3 7V17C3 19.2091 4.79086 21 7 21H17C19.2091 21 21 19.2091 21 17V7C21 4.79086 19.2091 3 17 3H7C4.79086 3 3 4.79086 3 7Z"
        stroke="url(#markmapGrad)" stroke-width="2" fill="#F8FAFC" />

  <path d="M7 12H11" stroke="url(#markmapGrad)" stroke-width="2.5" stroke-linecap="round"/>
  <path d="M11 12C11 9 12 8 15 8H17" stroke="url(#markmapGrad)" stroke-width="2.5" stroke-linecap="round"/>
  <path d="M11 12C11 15 12 16 15 16H17" stroke="url(#markmapGrad)" stroke-width="2.5" stroke-linecap="round"/>

  <circle cx="7" cy="12" r="2" fill="#4F46E5" />
  <circle cx="17" cy="8" r="1.5" fill="#06B6D4" />
  <circle cx="17" cy="16" r="1.5" fill="#06B6D4" />

  <path d="M18 4L20 6M19 3L21 5" stroke="#10B981" stroke-width="1.5" stroke-linecap="round"/>
</svg>